<?xml version="1.0" standalone="no"?>
<!DOCTYPE svg PUBLIC "-//W3C//DTD SVG 20010904//EN"
 "http://www.w3.org/TR/2001/REC-SVG-20010904/DTD/svg10.dtd">
<svg version="1.0" xmlns="http://www.w3.org/2000/svg"
 width="152.000000pt" height="133.000000pt" viewBox="0 0 152.000000 133.000000"
 preserveAspectRatio="xMidYMid meet">

<g transform="translate(0.000000,133.000000) scale(0.100000,-0.100000)"
fill="#000000" stroke="none">
<path d="M250 733 l0 -359 64 -63 64 -63 178 4 c190 4 230 13 283 61 56 52 78
164 45 230 -9 18 -30 47 -47 64 l-31 33 21 22 c34 38 46 69 46 123 0 67 -17
96 -110 186 -115 113 -115 113 -330 117 l-183 4 0 -359z m395 318 c22 -10 50
-29 62 -42 62 -68 56 -182 -14 -239 l-29 -25 41 -30 c51 -40 70 -77 69 -142 0
-71 -38 -126 -107 -159 -49 -22 -63 -24 -229 -24 l-178 0 0 340 0 340 173 0
c146 0 178 -3 212 -19z"/>
<path d="M350 890 l0 -110 116 0 c119 0 146 7 176 44 22 27 23 94 2 125 -27
38 -74 51 -189 51 l-105 0 0 -110z m300 -26 c0 -38 -61 -74 -125 -74 l-45 0 0
40 0 40 85 0 c47 0 85 -3 85 -6z"/>
<path d="M350 580 l0 -122 123 4 c142 4 180 18 204 75 20 48 10 92 -28 129
-30 29 -32 29 -165 32 l-134 4 0 -122z m320 -16 c0 -50 -57 -84 -140 -84 l-50
0 0 50 0 50 95 0 c80 0 95 -3 95 -16z"/>
<path d="M993 1069 c-42 -21 -43 -22 -43 -73 0 -48 3 -55 45 -96 l45 -44 -50
-51 c-67 -68 -66 -85 13 -163 l63 -62 137 0 137 0 0 38 c0 32 -7 45 -44 81
l-44 44 29 40 c23 31 29 51 29 89 0 48 -3 53 -67 120 -38 38 -80 76 -95 84
-39 20 -107 17 -155 -7z m166 -16 c65 -49 54 -118 -35 -212 -35 -38 -64 -71
-64 -75 0 -3 34 -6 75 -6 73 0 75 -1 75 -25 l0 -25 -130 0 c-111 0 -130 2
-130 15 0 9 38 56 85 105 99 105 111 133 71 167 -33 28 -60 29 -109 3 l-37
-20 0 30 c0 27 6 34 43 51 51 24 117 20 156 -8z"/>
</g>
</svg>
